<?xml version="1.0" standalone="no"?>
<!DOCTYPE svg PUBLIC "-//W3C//DTD SVG 20010904//EN"
 "http://www.w3.org/TR/2001/REC-SVG-20010904/DTD/svg10.dtd">
<svg version="1.0" xmlns="http://www.w3.org/2000/svg"
 width="273.000000pt" height="273.000000pt" viewBox="0 0 273.000000 273.000000"
 preserveAspectRatio="xMidYMid meet">
<metadata>
Created by potrace 1.11, written by Peter Selinger 2001-2013
</metadata>
<g transform="translate(0.000000,273.000000) scale(0.100000,-0.100000)"
fill="#000000" stroke="none">
<path d="M1335 2514 c-14 -7 -23 -8 -19 -3 6 11 -46 -19 -56 -32 -3 -3 -20
-12 -37 -20 -18 -8 -33 -18 -33 -22 0 -5 -4 -6 -9 -3 -5 3 -12 -1 -15 -10 -3
-8 -10 -13 -15 -10 -5 3 -14 -1 -21 -9 -7 -8 -17 -15 -23 -15 -6 0 -22 -10
-35 -22 -14 -13 -21 -17 -17 -9 5 8 -7 3 -27 -12 -19 -15 -38 -27 -42 -27 -3
0 -25 -12 -49 -27 -23 -14 -43 -25 -45 -24 -1 1 -14 -7 -29 -19 -14 -11 -31
-20 -38 -20 -7 0 -16 -7 -19 -16 -4 -9 -9 -14 -12 -11 -3 3 -51 -22 -107 -55
-56 -33 -112 -64 -124 -69 -13 -5 -23 -14 -23 -20 0 -7 -3 -9 -6 -6 -4 4 -19
-2 -33 -12 -14 -10 -36 -22 -49 -25 -12 -4 -20 -12 -17 -17 4 -5 -3 -9 -14 -9
-12 0 -20 -3 -18 -8 1 -4 -8 -18 -19 -30 -12 -13 -25 -37 -28 -54 -3 -17 -6
-263 -6 -547 0 -480 2 -519 19 -556 21 -47 48 -73 111 -107 25 -14 101 -58
170 -98 69 -40 150 -86 180 -103 30 -16 62 -36 71 -43 8 -8 19 -14 23 -14 3 0
50 -26 104 -59 211 -127 303 -174 345 -177 45 -3 147 37 147 58 0 6 3 8 6 5 6
-5 90 37 104 53 3 3 31 19 62 35 32 17 58 34 58 38 0 5 5 5 10 2 6 -3 10 -2
10 3 0 7 41 32 60 37 9 2 75 44 90 57 8 7 17 12 20 10 3 -1 14 6 25 15 11 9
21 15 22 13 1 -3 11 2 21 10 10 8 25 16 32 18 8 2 20 11 28 20 9 12 12 13 7 2
-4 -8 1 -6 10 5 9 11 18 18 20 15 2 -3 13 3 25 12 11 10 20 16 20 13 0 -6 98
53 124 74 16 13 18 13 11 1 -9 -15 33 15 47 35 5 7 8 7 9 0 0 -5 4 1 8 15 8
28 3 62 -8 55 -4 -2 -14 5 -21 16 -8 10 -22 19 -32 19 -10 0 -18 5 -18 12 0 6
-3 9 -6 5 -3 -3 -15 3 -27 14 -11 10 -27 19 -34 19 -7 0 -13 5 -13 11 0 5 -4
7 -10 4 -6 -3 -10 -1 -10 4 0 6 -5 11 -10 11 -6 0 -28 11 -50 25 -22 14 -40
23 -40 20 0 -3 -10 3 -22 14 -11 11 -25 18 -30 15 -4 -3 -8 -1 -8 4 0 5 -12
15 -27 22 -16 8 -40 23 -55 33 -16 10 -28 15 -28 10 0 -4 -4 -3 -8 3 -6 9
-156 100 -220 133 -15 8 -28 18 -30 23 -2 4 -12 8 -22 8 -10 0 -20 4 -22 8 -1
4 -49 35 -105 67 -57 33 -103 66 -103 73 0 7 5 10 10 7 6 -3 10 -3 10 2 0 4
23 19 50 32 28 14 50 29 50 34 0 4 4 6 9 3 4 -3 18 3 30 13 12 10 35 24 51 31
17 7 30 16 30 21 0 5 6 9 14 9 8 0 50 21 93 48 43 26 90 53 106 61 15 8 27 18
27 23 0 5 5 6 10 3 6 -3 10 -1 10 5 0 6 4 9 8 6 5 -3 20 5 33 17 13 12 24 20
24 19 0 -8 55 22 55 30 0 5 4 7 8 4 5 -3 20 5 33 17 13 12 24 20 24 18 0 -7
75 33 75 41 0 5 4 7 9 3 6 -3 14 3 20 12 5 10 13 17 18 17 15 -3 53 16 53 26
0 5 4 9 9 7 16 -4 90 46 94 65 6 23 -3 59 -13 53 -4 -3 -10 1 -13 9 -3 8 -19
17 -36 21 -17 4 -29 10 -26 15 3 5 -5 12 -17 16 -13 3 -35 15 -49 25 -14 10
-32 19 -39 21 -7 2 -22 10 -32 18 -10 8 -21 13 -25 12 -3 -2 -9 0 -12 5 -10
14 -70 53 -81 53 -6 0 -16 5 -23 10 -26 23 -126 78 -131 72 -3 -3 -6 0 -6 7 0
7 -4 9 -10 6 -5 -3 -10 -2 -10 3 0 5 -12 15 -27 22 -16 8 -40 22 -54 32 -14
10 -29 15 -33 11 -3 -3 -6 -1 -6 6 0 10 -17 20 -55 32 -5 1 -21 13 -34 25 -13
12 -30 20 -37 17 -8 -3 -14 0 -14 5 0 6 -12 17 -27 24 -16 8 -40 22 -55 32
-16 10 -28 14 -28 10 0 -5 -4 -3 -8 3 -12 18 -87 23 -117 7z"/>
</g>
</svg>
